# xmcd
#
# Track frame offsets:
#	150
#	25437
#	46417
#	66797
#	85787
#	103040
#	125735
#	148647
#	169930
#	193762
#
# Disc length: 2875 seconds
#
# Revision: 1
# Processed by: cddbd v1.5.2PL0 Copyright (c) Steve Scherf et al.
# Submitted via: EZCDAudioConverter 8.0.2.1
#
DISCID=900b390a
DTITLE=Chế Linh, Tuấn Vũ - Vùng Trước Mặt
DYEAR=1998
DGENRE=World Pop
TTITLE0=Chế Linh - Lời người lính xa xôi
TTITLE1=Tuấn Vũ - Tình bạn Quang Trung
TTITLE2=Chế Linh - bạc màu áo trận
TTITLE3=Tuấn Vũ - Thành phố mưa bay
TTITLE4=Chế Linh - Vùng trước mặt
TTITLE5=Chế Linh - Kỷ niệm một mùa hè
TTITLE6=Tuấn Vũ - Thư cho vợ hiền
TTITLE7=Chế Linh - Như một cơn mê
TTITLE8=Tuấn Vũ - Về miền Tây
TTITLE9=Chế Linh - Xót xa
EXTD=
EXTT0=
EXTT1=
EXTT2=
EXTT3=
EXTT4=
EXTT5=
EXTT6=
EXTT7=
EXTT8=
EXTT9=
PLAYORDER=
